<svg width="46" height="46" viewBox="0 0 46 46" fill="none" xmlns="http://www.w3.org/2000/svg">
<path fill-rule="evenodd" clip-rule="evenodd" d="M0.0832525 3.82917C0.0832525 2.81361 0.486681 1.83965 1.20479 1.12154C1.9229 0.403434 2.89686 5.10482e-06 3.91242 5.10482e-06H42.0832C42.5865 -0.000816878 43.085 0.0976362 43.5502 0.289727C44.0154 0.481819 44.4381 0.763775 44.7942 1.11946C45.1503 1.47514 45.4327 1.89755 45.6253 2.36253C45.8179 2.8275 45.9169 3.32589 45.9166 3.82917V42C45.9171 42.5034 45.8184 43.0019 45.6261 43.4671C45.4338 43.9323 45.1516 44.355 44.7958 44.7111C44.4399 45.0671 44.0174 45.3495 43.5523 45.5421C43.0872 45.7346 42.5887 45.8336 42.0853 45.8333H3.91242C3.40939 45.8333 2.91129 45.7342 2.44658 45.5417C1.98187 45.3491 1.55965 45.0669 1.20405 44.7111C0.848454 44.3553 0.566443 43.9329 0.374132 43.4681C0.181821 43.0033 0.0829788 42.5051 0.0832525 42.0021V3.82917ZM18.2249 17.475H24.4312V20.5917C25.327 18.8 27.6187 17.1875 31.0624 17.1875C37.6645 17.1875 39.2291 20.7563 39.2291 27.3042V39.4333H32.5478V28.7958C32.5478 25.0667 31.652 22.9625 29.377 22.9625C26.2208 22.9625 24.9083 25.2313 24.9083 28.7958V39.4333H18.2249V17.475ZM6.76659 39.1479H13.4499V17.1875H6.76659V39.1458V39.1479ZM14.4062 10.025C14.4188 10.5972 14.3169 11.1662 14.1067 11.6986C13.8964 12.2309 13.5819 12.7159 13.1817 13.1251C12.7814 13.5342 12.3035 13.8593 11.7759 14.0813C11.2483 14.3032 10.6817 14.4175 10.1093 14.4175C9.53692 14.4175 8.97031 14.3032 8.44272 14.0813C7.91513 13.8593 7.43719 13.5342 7.03694 13.1251C6.63669 12.7159 6.3222 12.2309 6.11192 11.6986C5.90164 11.1662 5.79982 10.5972 5.81242 10.025C5.83715 8.90178 6.30072 7.8329 7.10385 7.04727C7.90697 6.26163 8.9858 5.82171 10.1093 5.82171C11.2328 5.82171 12.3116 6.26163 13.1147 7.04727C13.9179 7.8329 14.3814 8.90178 14.4062 10.025Z" fill="#224DA6"/>
</svg>
